<svg width="30" height="29" viewBox="0 0 30 29" fill="none" xmlns="http://www.w3.org/2000/svg">
<g clip-path="url(#clip0_41_613)">
<path d="M30.0001 14.5887C30.0001 6.5303 23.2839 -0.00195312 15.0001 -0.00195312C6.71262 -0.000140625 -0.00363159 6.5303 -0.00363159 14.5905C-0.00363159 21.8713 5.48262 27.9069 12.6526 29.0017V18.8064H8.84637V14.5905H12.6564V11.3733C12.6564 7.71748 14.897 5.69836 18.3226 5.69836C19.9651 5.69836 21.6807 5.98292 21.6807 5.98292V9.57167H19.7889C17.927 9.57167 17.3457 10.6972 17.3457 11.8518V14.5887H21.5045L20.8407 18.8045H17.3439V28.9999C24.5139 27.9051 30.0001 21.8695 30.0001 14.5887Z" fill="#1A6662"/>
</g>
<defs>
<clipPath id="clip0_41_613">
<rect width="30" height="29" fill="white"/>
</clipPath>
</defs>
</svg>
