<svg width="88" height="88" viewBox="0 0 88 88" fill="none" xmlns="http://www.w3.org/2000/svg">
<rect width="88" height="88" fill="#F5F5F5"/>
<g id="Desktop - 1" clip-path="url(#clip0_0_1)">
<rect width="1440" height="10263" transform="translate(-1186 -9645)" fill="white"/>
<rect id="Rectangle 58" x="-1244" y="50" width="1440" height="590" rx="20" fill="#F5F5F5"/>
<g id="logos:whatsapp-icon" clip-path="url(#clip1_0_1)">
<path id="Vector" d="M1.87793 43.4734C1.87586 50.8671 3.82286 58.0865 7.52505 64.4498L1.52386 86.1913L23.9474 80.3573C30.1494 83.7075 37.0983 85.463 44.1599 85.4634H44.1784C67.4898 85.4634 86.4659 66.6413 86.4758 43.5065C86.4803 32.296 82.0844 21.7545 74.0977 13.8235C66.1124 5.89331 55.4923 1.52367 44.1767 1.51855C20.8626 1.51855 1.8879 20.3396 1.87827 43.4734" fill="url(#paint0_linear_0_1)"/>
<path id="Vector_2" d="M0.367813 43.4597C0.365406 51.1195 2.38219 58.5971 6.21637 65.1882L0 87.7091L23.2275 81.666C29.6275 85.1284 36.8332 86.9539 44.1653 86.9566H44.1842C68.332 86.9566 87.9897 67.4575 88 43.4945C88.0041 31.8812 83.4501 20.9607 75.1781 12.7457C66.9051 4.53166 55.9051 0.00477519 44.1842 0C20.0324 0 0.377438 19.4964 0.367813 43.4597ZM14.2003 64.0531L13.333 62.687C9.68722 56.935 7.76291 50.2879 7.76566 43.4624C7.77356 23.5448 24.1099 7.34015 44.198 7.34015C53.9261 7.34425 63.0685 11.1071 69.9449 17.9343C76.8209 24.7621 80.6046 33.8384 80.6022 43.4918C80.5932 63.4095 64.2565 79.6161 44.1842 79.6161H44.1698C37.6341 79.6127 31.2242 77.8711 25.6341 74.58L24.3038 73.7972L10.5201 77.383L14.2003 64.0527V64.0531Z" fill="url(#paint1_linear_0_1)"/>
<path id="Vector_3" d="M33.233 25.2909C32.4129 23.4822 31.5497 23.4457 30.7697 23.4139C30.131 23.3867 29.4009 23.3887 28.6715 23.3887C27.9414 23.3887 26.7551 23.6612 25.7524 24.7476C24.7486 25.835 21.9202 28.4627 21.9202 33.8072C21.9202 39.152 25.8434 44.317 26.3904 45.0425C26.9379 45.7666 33.9642 57.0852 45.0921 61.4395C54.3403 65.0581 56.2224 64.3384 58.2295 64.1569C60.237 63.9761 64.7071 61.5299 65.6191 58.9932C66.5318 56.4569 66.5318 54.2828 66.2581 53.8285C65.9845 53.3759 65.2544 53.1041 64.1595 52.561C63.0644 52.0177 57.6819 49.3896 56.6785 49.0271C55.6748 48.6648 54.945 48.4841 54.2149 49.5718C53.4847 50.6578 51.3882 53.1041 50.7492 53.8285C50.1108 54.5547 49.4718 54.6451 48.3773 54.1017C47.2818 53.5567 43.7559 52.411 39.5728 48.7105C36.3182 45.8311 34.1209 42.2753 33.4823 41.1876C32.8436 40.1015 33.4139 39.5128 33.9628 38.9715C34.4547 38.4848 35.058 37.703 35.6059 37.069C36.1518 36.4345 36.334 35.9819 36.6991 35.2575C37.0645 34.5323 36.8816 33.8979 36.6083 33.3545C36.334 32.8112 34.2065 27.4388 33.233 25.2909Z" fill="white"/>
</g>
</g>
<defs>
<linearGradient id="paint0_linear_0_1" x1="4249.12" y1="8468.79" x2="4249.12" y2="1.51855" gradientUnits="userSpaceOnUse">
<stop stop-color="#1FAF38"/>
<stop offset="1" stop-color="#60D669"/>
</linearGradient>
<linearGradient id="paint1_linear_0_1" x1="4400" y1="8770.91" x2="4400" y2="0" gradientUnits="userSpaceOnUse">
<stop stop-color="#F9F9F9"/>
<stop offset="1" stop-color="white"/>
</linearGradient>
<clipPath id="clip0_0_1">
<rect width="1440" height="10263" fill="white" transform="translate(-1186 -9645)"/>
</clipPath>
<clipPath id="clip1_0_1">
<rect width="88" height="88" fill="white"/>
</clipPath>
</defs>
</svg>
